<?xml version="1.0" encoding="utf-8"?>
<!-- Generator: Adobe Illustrator 21.1.0, SVG Export Plug-In . SVG Version: 6.00 Build 0)  -->
<svg version="1.1" id="Layer_1" xmlns="http://www.w3.org/2000/svg" xmlns:xlink="http://www.w3.org/1999/xlink" x="0px" y="0px"
	 viewBox="0 0 512 512" style="enable-background:new 0 0 512 512;" xml:space="preserve">
<style type="text/css">
	.st0{fill:#F05455;}
</style>
<path class="st0" d="M85.6,211.3c-1.3,0-3.8,0-5.1-1.3c-2.6-2.5-2.6-6.3,0-8.8L203,80.4c2.6-2.5,6.4-2.5,8.9,0
	c2.6,2.5,2.6,6.3,0,8.8L89.4,210.1C89.4,211.3,86.8,211.3,85.6,211.3z"/>
<path class="st0" d="M427.7,211.3c-1.3,0-3.8,0-5.1-1.3L300,89.2c-2.6-2.5-2.6-6.3,0-8.8c2.6-2.5,6.4-2.5,8.9,0L431.5,200
	c2.6,2.5,2.6,6.3,0,8.8C430.3,211.3,429,211.3,427.7,211.3z"/>
<path class="st0" d="M67.7,280.6c-1.3,0-3.8,0-5.1-1.3c-2.6-2.5-2.6-6.3,0-8.8L251.5,84.2c2.6-2.5,6.4-2.5,8.9,0l188.9,186.3
	c2.6,2.5,2.6,6.3,0,8.8c-2.6,2.5-6.4,2.5-8.9,0L256.6,96.8L72.8,279.3C71.5,280.6,69,280.6,67.7,280.6z"/>
<path class="st0" d="M86.8,313.3c-1.3,0-3.8,0-5.1-1.3c-2.6-2.5-2.6-6.3,0-8.8l169.8-167.4c2.6-2.5,6.4-2.5,8.9,0l171.1,167.4
	c2.6,2.5,2.6,6.3,0,8.8c-2.6,2.5-6.4,2.5-8.9,0l-166-163.7L92,312C90.7,313.3,88.1,313.3,86.8,313.3z"/>
<path class="st0" d="M106,346c-1.3,0-3.8,0-5.1-1.3c-1.3-2.5-1.3-6.3,1.3-8.8l149.4-148.5c2.6-2.5,6.4-2.5,8.9,0l150.6,148.5
	c2.6,2.5,2.6,6.3,0,8.8c-2.6,2.5-6.4,2.5-8.9,0L256.6,200L111.1,344.8C109.8,346,107.3,346,106,346z"/>
<path class="st0" d="M125.1,378.7c-1.3,0-3.8,0-5.1-1.3c-2.6-2.5-2.6-6.3,0-8.8L251.5,239c2.6-2.5,6.4-2.5,8.9,0L392,368.7
	c2.6,2.5,2.6,6.3,0,8.8c-2.6,2.5-6.4,2.5-8.9,0L256.6,252.8L130.3,377.5C129,378.7,126.4,378.7,125.1,378.7z"/>
<path class="st0" d="M144.3,411.5c-1.3,0-3.8,0-5.1-1.3c-2.6-2.5-2.6-6.3,0-8.8l112.3-110.8c2.6-2.5,6.4-2.5,8.9,0l112.3,110.8
	c2.6,2.5,2.6,6.3,0,8.8c-2.6,2.5-6.4,2.5-8.9,0L256.6,304.5L149.4,410.2C148.1,411.5,145.6,411.5,144.3,411.5z"/>
<path class="st0" d="M337.1,432.9c-1.3,0-3.8,0-5.1-1.3l-76.6-75.5l-76.6,75.5c-2.6,2.5-6.4,2.5-8.9,0c-2.6-2.5-2.6-6.3,0-8.8
	l80.4-79.3c2.6-2.5,6.4-2.5,8.9,0l80.4,79.3c2.6,2.5,2.6,6.3,0,8.8C340.9,431.6,339.6,432.9,337.1,432.9z"/>
<path class="st0" d="M284.7,432.9c-1.3,0-3.8,0-5.1-1.3l-24.3-23.9l-23,22.7c-2.6,2.5-6.4,2.5-8.9,0c-2.6-2.5-2.6-6.3,0-8.8
	l28.1-27.7c2.6-2.5,6.4-2.5,8.9,0l28.1,27.7c2.6,2.5,2.6,6.3,0,8.8C288.6,431.6,286,432.9,284.7,432.9z"/>
</svg>
